# xmcd
#
# Track frame offsets: 
#        150
#        13736
#        24079
#        36135
#        68500
#        86086
#        95585
#        124106
#        140909
#        167308
#        185275
#        200780
#        238323
#        255618
#        275992
#        298295
#        321700
#
# Disc length: 4734 seconds
#
# Revision: 0
# Processed by: cddbd v1.5.2PL0 Copyright (c) Steve Scherf et al.
# Submitted via: ExactAudioCopy v0.99pb4
#
DISCID=07127c11
DTITLE=Buddy Guy - The Definitive Buddy Guy
DYEAR=2009
DGENRE=Blues
TTITLE0=Sit and Cry (The Blues)
TTITLE1=First Time I Met the Blues
TTITLE2=Ten Years Ago
TTITLE3=Stone Crazy
TTITLE4=When My Left Eye Jumps
TTITLE5=Hoodoo Man Blues
TTITLE6=A Man And The Blues
TTITLE7=I Got My Eyes On You(live)
TTITLE8=Five Long Years
TTITLE9=A Man Of Many Words
TTITLE10=The Things I Used To Do(live)
TTITLE11=When I Left Home
TTITLE12=Give Me My Coat And Shoes
TTITLE13=She Suits Me To A "T"
TTITLE14=Checkin' On My Baby(live)
TTITLE15=Let Me Love You Baby(live)
TTITLE16=Baby Please Don't Leave Me
EXTD=
EXTT0=
EXTT1=
EXTT2=
EXTT3=
EXTT4=
EXTT5=
EXTT6=
EXTT7=
EXTT8=
EXTT9=
EXTT10=
EXTT11=
EXTT12=
EXTT13=
EXTT14=
EXTT15=
EXTT16=
PLAYORDER=
